<svg xmlns="http://www.w3.org/2000/svg" xmlns:xlink="http://www.w3.org/1999/xlink"  >
    <g 
    transform="translate(-150.88, -150.363)"
    >
        <path fill="#1E1B1C" d="M424.674,156.309l-2.94-0.779c-2.636-0.7-5.34,0.869-6.04,3.505l-0.733,2.768C417.38,158.8,420.854,156.835,424.674,156.309z"></path>
        <path fill="#1E1B1C" d="M411.796,173.719l-0.718,2.707c-0.7,2.636,0.869,5.34,3.505,6.04l2.8,0.747C414.394,180.863,412.399,177.473,411.796,173.719z"></path>
        <path fill="#1E1B1C" d="M439.13,160.145l-3.165-0.835c3.206,2.466,5.291,6.114,5.788,10.129l0.863-3.267C443.309,163.546,441.752,160.854,439.13,160.145z"></path>
        <path fill="#1E1B1C" d="M428.963,186.289l3.011,0.8c2.636,0.699,5.34-0.871,6.039-3.507c0,0,0,0,0,0l0.85-3.193C436.47,183.585,432.912,185.705,428.963,186.289z"></path>
        <path fill="#ED145B" d="M426.847,157.554c-7.639-0.002-13.832,6.19-13.834,13.829c0,0.002,0,0.003,0,0.004c0.001,7.639,6.193,13.832,13.832,13.831c0.001,0,0.001,0,0.002,0c7.638-0.001,13.829-6.193,13.83-13.831C440.677,163.748,434.486,157.555,426.847,157.554L426.847,157.554 M419.014,164.455c0.414-2.141,2.484-3.543,4.626-3.131c2.143,0.413,3.545,2.485,3.133,4.628c-0.413,2.143-2.485,3.545-4.628,3.133c-2.143-0.413-3.545-2.485-3.133-4.628M424.76,176.409c-0.412,2.143-2.484,3.546-4.627,3.133h-0.001c-2.143-0.413-3.545-2.485-3.133-4.628c0.413-2.143,2.485-3.545,4.628-3.133C423.769,172.195,425.172,174.267,424.76,176.409 M426.438,173.211c-0.953-0.184-1.576-1.104-1.393-2.057c0.184-0.953,1.104-1.576,2.057-1.393c0.953,0.184,1.576,1.104,1.393,2.057C428.311,172.771,427.391,173.394,426.438,173.211 M434.677,178.319c-0.415,2.142-2.486,3.543-4.628,3.13c-2.143-0.413-3.545-2.485-3.133-4.628c0.413-2.143,2.485-3.545,4.628-3.133c2.143,0.413,3.545,2.485,3.133,4.628M432.062,170.993c-2.144-0.413-3.546-2.485-3.133-4.629l0,0c0.413-2.143,2.485-3.545,4.628-3.133c2.144,0.413,3.546,2.485,3.133,4.629l0,0C436.278,170.003,434.206,171.406,432.062,170.993C432.063,170.993,432.062,170.993,432.062,170.993"></path>
    </g>
</svg>
